<svg width="20" height="20" viewBox="0 0 20 20" fill="none" xmlns="http://www.w3.org/2000/svg">
<path fill-rule="evenodd" clip-rule="evenodd" d="M5.84416 8.66664C5.14576 8.66664 5 8.82016 5 9.55552V10.8889C5 11.6243 5.14576 11.7778 5.84416 11.7778H7.53246V17.1111C7.53246 17.8465 7.67822 18 8.37662 18H10.0649C10.7634 18 10.9091 17.8465 10.9091 17.1111V11.7778H12.8048C13.3345 11.7778 13.471 11.6694 13.6165 11.1331L13.9783 9.79976C14.2275 8.88112 14.0739 8.66664 13.1666 8.66664H10.9091V6.44445C10.9091 5.95353 11.287 5.55555 11.7532 5.55555H14.1559C14.8542 5.55555 15 5.40207 15 4.66666V2.88889C15 2.15348 14.8542 2 14.1559 2H11.7532C9.42214 2 7.53246 3.98985 7.53246 6.44445V8.66664H5.84416Z" stroke="#666666" stroke-width="1.5" stroke-linejoin="round"/>
</svg>
