<svg width="20" height="20" viewBox="0 0 20 20" fill="none" xmlns="http://www.w3.org/2000/svg">
<path d="M10 18C14.4182 18 18 14.4182 18 10C18 5.58172 14.4182 2 10 2C5.58172 2 2 5.58172 2 10C2 11.1031 2.22326 12.1541 2.62706 13.1102C2.85022 13.6385 2.96181 13.9027 2.97562 14.1024C2.98944 14.3021 2.93067 14.5217 2.81314 14.961L2 18L5.03902 17.1869C5.4783 17.0694 5.69795 17.0106 5.89762 17.0244C6.09729 17.0382 6.36148 17.1498 6.88988 17.373C7.84596 17.7767 8.89688 18 10 18Z" stroke="#666666" stroke-width="1.5" stroke-linejoin="round"/>
<path d="M7.27052 10.3018L7.96727 9.43649C8.26093 9.07177 8.62392 8.73224 8.6524 8.24661C8.65952 8.12396 8.57328 7.57326 8.40064 6.47189C8.33281 6.03905 7.92869 6 7.57866 6C7.12251 6 6.89444 6 6.66796 6.10345C6.38171 6.2342 6.08783 6.60185 6.02334 6.90987C5.97231 7.15357 6.01023 7.3215 6.08607 7.65735C6.40818 9.08384 7.16385 10.4926 8.33558 11.6644C9.50736 12.8362 10.9162 13.5919 12.3426 13.9139C12.6785 13.9898 12.8464 14.0277 13.0902 13.9767C13.3982 13.9122 13.7658 13.6183 13.8966 13.332C14 13.1055 14 12.8775 14 12.4214C14 12.0713 13.961 11.6672 13.5281 11.5994C12.4267 11.4267 11.8761 11.3405 11.7534 11.3476C11.2678 11.3761 10.9282 11.739 10.5635 12.0327L9.69816 12.7295" stroke="#666666" stroke-width="1.5" stroke-linejoin="round"/>
</svg>
