<svg width="20" height="20" viewBox="0 0 20 20" fill="none" xmlns="http://www.w3.org/2000/svg">
<path d="M13 7.08301C14.3261 7.08301 15.5979 7.56927 16.5355 8.43482C17.4732 9.30038 18 10.4743 18 11.6984V17.083H14.6667V11.6984C14.6667 11.2904 14.4911 10.8991 14.1785 10.6105C13.866 10.322 13.442 10.1599 13 10.1599C12.558 10.1599 12.134 10.322 11.8215 10.6105C11.5089 10.8991 11.3333 11.2904 11.3333 11.6984V17.083H8V11.6984C8 10.4743 8.52678 9.30038 9.46447 8.43482C10.4021 7.56927 11.6739 7.08301 13 7.08301Z" stroke="#666666" stroke-width="1.5" stroke-linecap="round" stroke-linejoin="round"/>
<path d="M5 8.08301H2V17.083H5V8.08301Z" stroke="#666666" stroke-width="1.5" stroke-linecap="round" stroke-linejoin="round"/>
<path d="M3.5 5.08301C4.32843 5.08301 5 4.41143 5 3.58301C5 2.75458 4.32843 2.08301 3.5 2.08301C2.67157 2.08301 2 2.75458 2 3.58301C2 4.41143 2.67157 5.08301 3.5 5.08301Z" stroke="#666666" stroke-width="1.5" stroke-linecap="round" stroke-linejoin="round"/>
</svg>
