<svg width="20" height="20" viewBox="0 0 20 20" fill="none" xmlns="http://www.w3.org/2000/svg">
<path d="M2 10C2 6.22877 2 4.34315 3.17157 3.17157C4.34315 2 6.22877 2 10 2C13.7712 2 15.6568 2 16.8285 3.17157C18 4.34315 18 6.22877 18 10C18 13.7712 18 15.6568 16.8285 16.8285C15.6568 18 13.7712 18 10 18C6.22877 18 4.34315 18 3.17157 16.8285C2 15.6568 2 13.7712 2 10Z" stroke="#666666" stroke-width="1.5" stroke-linejoin="round"/>
<path d="M14 10C14 12.2092 12.2092 14 10 14C7.79086 14 6 12.2092 6 10C6 7.79086 7.79086 6 10 6C12.2092 6 14 7.79086 14 10Z" stroke="#666666" stroke-width="1.5" stroke-linejoin="round"/>
<path d="M15.5 5H14" stroke="#666666" stroke-width="1.5" stroke-linejoin="round"/>
</svg>
