<svg width="20" height="20" viewBox="0 0 20 20" fill="none" xmlns="http://www.w3.org/2000/svg">
<path d="M18 15.064C18 15.352 17.9359 15.648 17.7997 15.936C17.6635 16.224 17.4872 16.496 17.2549 16.752C16.8623 17.184 16.4296 17.496 15.9409 17.696C15.4602 17.896 14.9394 18 14.3786 18C13.5613 18 12.688 17.808 11.7666 17.416C10.8453 17.024 9.92389 16.496 9.01052 15.832C8.08913 15.16 7.21582 14.416 6.38257 13.592C5.55734 12.76 4.81222 11.888 4.14722 10.976C3.49024 10.064 2.96144 9.152 2.57687 8.248C2.19229 7.336 2 6.464 2 5.632C2 5.088 2.09614 4.568 2.28843 4.088C2.48072 3.6 2.78518 3.152 3.20981 2.752C3.72258 2.248 4.28343 2 4.87631 2C5.10065 2 5.32499 2.048 5.52529 2.144C5.7336 2.24 5.91788 2.384 6.06209 2.592L7.92088 5.208C8.0651 5.408 8.16925 5.592 8.24136 5.768C8.31347 5.936 8.35353 6.104 8.35353 6.256C8.35353 6.448 8.29745 6.64 8.18528 6.824C8.08112 7.008 7.92889 7.2 7.7366 7.392L7.12769 8.024C7.03956 8.112 6.9995 8.216 6.9995 8.344C6.9995 8.408 7.00751 8.464 7.02354 8.528C7.04757 8.592 7.07161 8.64 7.08763 8.688C7.23185 8.952 7.48022 9.296 7.83275 9.712C8.19329 10.128 8.57787 10.552 8.99449 10.976C9.42714 11.4 9.84377 11.792 10.2684 12.152C10.685 12.504 11.0295 12.744 11.302 12.888C11.342 12.904 11.3901 12.928 11.4462 12.952C11.5103 12.976 11.5744 12.984 11.6465 12.984C11.7827 12.984 11.8868 12.936 11.975 12.848L12.5839 12.248C12.7842 12.048 12.9765 11.896 13.1607 11.8C13.345 11.688 13.5293 11.632 13.7296 11.632C13.8818 11.632 14.0421 11.664 14.2183 11.736C14.3946 11.808 14.5789 11.912 14.7792 12.048L17.4311 13.928C17.6395 14.072 17.7837 14.24 17.8718 14.44C17.9519 14.64 18 14.84 18 15.064Z" fill="#CCCCCC"/>
</svg>
